<?xml version="1.0" encoding="UTF-8"?>
<!DOCTYPE svg PUBLIC "-//W3C//DTD SVG 1.1//EN" "http://www.w3.org/Graphics/SVG/1.1/DTD/svg11.dtd">
<!-- Creator: CorelDRAW X5 -->
<svg xmlns="http://www.w3.org/2000/svg" xml:space="preserve" width="82.804mm" height="83.82mm" style="shape-rendering:geometricPrecision; text-rendering:geometricPrecision; image-rendering:optimizeQuality; fill-rule:evenodd; clip-rule:evenodd"
viewBox="0 0 8280 8382"
 xmlns:xlink="http://www.w3.org/1999/xlink"
 xmlns:svg="http://www.w3.org/2000/svg">
 <defs>
  <style type="text/css">
   <![CDATA[
    .fil0 {fill:black}
    .fil2 {fill:#004D97}
    .fil7 {fill:#EDBA00}
    .fil5 {fill:#FFED01}
    .fil4 {fill:white}
    .fil1 {fill:black;fill-rule:nonzero}
    .fil3 {fill:#A50044;fill-rule:nonzero}
    .fil6 {fill:#DB002F;fill-rule:nonzero}
    .fil8 {fill:#DDB305;fill-rule:nonzero}
    .fil9 {fill:#EDBA00;fill-rule:nonzero}
   ]]>
  </style>
 </defs>
 <g id="Layer_x0020_1">
  <metadata id="CorelCorpID_0Corel-Layer"/>
 </g>
 <g id="Layer_x0020_1_0">
  <metadata id="CorelCorpID_1Corel-Layer"/>
  <g id="FC_x0020_Barcelona_x0020_Logo.cdr">
   <path class="fil0" d="M739 260c572,251 1510,221 2140,-254 880,645 1727,579 2535,0 538,389 1368,555 2145,262l349 485c-909,1215 -573,2377 365,3399l-394 399c89,2621 -1941,3247 -3107,3312l-627 513 -622 -505c-2081,-180 -3180,-1278 -3112,-3313l-405 -409c791,-856 1386,-2025 369,-3396l363 -492z"/>
   <path class="fil1" d="M742 254c301,132 704,186 1110,138 363,-43 727,-168 1023,-391l4 -3 4 3c439,322 869,466 1291,458 421,-8 834,-169 1237,-458l4 -3 4 3c281,203 640,345 1031,393 356,44 738,8 1109,-131l5 -2c119,164 237,328 354,492l-3 4c-428,572 -579,1132 -521,1671 65,603 392,1181 886,1720l4 5 -396 402c36,1077 -285,1817 -758,2321 -677,722 -1665,956 -2353,995l-629 515 -625 -507c-1050,-91 -1851,-416 -2378,-977 -518,-551 -771,-1330 -738,-2340l-407 -412 4 -5c395,-427 741,-933 861,-1502 120,-569 15,-1202 -492,-1886l-3 -4c123,-167 246,-334 369,-500l5 2zm1111 151c-406,48 -809,-6 -1112,-137l-357 484c507,686 612,1321 491,1893 -120,570 -465,1076 -860,1503l403 407 0 3c-34,1007 219,1784 735,2333 525,559 1323,882 2371,973l2 0 620 503 624 -511 2 0c686,-38 1671,-271 2346,-991 470,-502 791,-1240 754,-2314l0 -3 392 -397c-494,-540 -820,-1118 -885,-1723 -58,-541 93,-1103 521,-1676l-343 -477c-371,139 -753,174 -1110,130 -391,-48 -751,-190 -1033,-392 -404,288 -817,449 -1240,457 -423,8 -855,-136 -1295,-457 -297,223 -663,348 -1026,391z"/>
   <path class="fil2" d="M787 4505l6696 0c176,1853 -1001,2854 -2792,2952l-1138 3c-1713,-123 -2989,-1027 -2767,-2955z"/>
   <polygon class="fil3" points="3674,4527 4622,4527 4622,7488 3674,7488 "/>
   <polygon class="fil3" points="1786,4527 2734,4527 2734,7174 1786,7174 "/>
   <polygon class="fil3" points="2116,7038 2734,7038 2734,7311 2116,7311 "/>
   <polygon class="fil3" points="5551,4527 6499,4527 6499,7174 5551,7174 "/>
   <polygon class="fil3" points="5551,7038 6169,7038 6169,7311 5551,7311 "/>
   <polygon class="fil4" points="4117,872 4117,3502 920,3525 1250,2259 840,745 2863,485 "/>
   <polygon class="fil5" points="4163,872 4163,3502 7360,3525 7030,2259 7441,745 5418,485 "/>
   <polygon class="fil6" points="2270,560 3187,560 3187,3486 2270,3486 "/>
   <polygon class="fil6" points="4117,1651 4117,2568 1265,2568 1265,1651 "/>
   <polygon class="fil6" points="4450,767 4789,767 4789,3467 4450,3467 "/>
   <polygon class="fil6" points="5094,574 5433,574 5433,3473 5094,3473 "/>
   <polygon class="fil6" points="5741,737 6080,737 6080,3479 5741,3479 "/>
   <polygon class="fil6" points="6383,838 6722,838 6722,3477 6383,3477 "/>
   <path class="fil7" d="M2874 214c-590,433 -1524,478 -2061,262l-215 276c921,1297 392,2601 -339,3400l336 356c-137,1954 1004,3084 3009,3201l543 454 542 -461c1167,-20 3215,-675 2994,-3196l338 -350c-858,-952 -1154,-2255 -325,-3403l-202 -275c-734,241 -1573,107 -2078,-258 -757,543 -1719,599 -2545,-6zm2552 371l0 0c455,283 959,363 1826,287 -434,752 -481,1647 -97,2512l-6021 -4c324,-773 398,-1661 -110,-2525 626,91 1237,69 1847,-263 827,485 1677,494 2554,-7zm-4505 3948l0 0 6457 0c170,1787 -965,2751 -2692,2846l-1097 3c-1651,-119 -2882,-991 -2668,-2849z"/>
   <path class="fil8" d="M2874 222c-279,203 -633,321 -986,365 -395,50 -788,10 -1072,-104l-209 269c407,575 530,1152 477,1685 -67,668 -409,1269 -815,1714l334 354 -4 58c-55,948 195,1697 701,2227 506,530 1269,840 2239,908l68 4 541 452 540 -459 2 0c78,-1 161,-6 247,-13 566,-50 1265,-241 1817,-685 552,-443 958,-1138 940,-2193 -2,-96 -7,-196 -16,-299l0 -3 336 -348c-449,-500 -743,-1096 -803,-1715 -54,-561 86,-1142 479,-1687l-196 -267c-358,117 -741,145 -1097,101 -374,-46 -719,-172 -978,-358 -389,277 -831,427 -1280,426 -428,-1 -862,-138 -1265,-432zm-988 353c353,-45 707,-162 984,-366l4 -3 4 3c401,294 834,431 1261,432 448,1 889,-149 1277,-426l4 -3 4 3c257,186 602,312 976,358 357,44 739,16 1096,-102l4 -1c69,94 138,188 207,282l-3 4c-393,544 -533,1123 -479,1682 59,619 354,1214 803,1712l4 4 -340 353c9,102 14,201 16,297 18,1060 -390,1758 -945,2203 -555,445 -1256,638 -1824,688 -85,7 -167,12 -245,13l-545 463 -546 -456 -64 -4c-974,-68 -1740,-379 -2248,-912 -508,-532 -759,-1285 -704,-2237l3 -52 -339 -358 4 -4c406,-444 749,-1043 816,-1711 53,-532 -70,-1107 -478,-1681l-3 -4 221 -284 5 2c282,114 675,155 1070,105zm3543 5c227,141 466,231 756,277 291,46 633,47 1066,9l12 -1 -6 11c-218,378 -339,792 -355,1220 -16,422 68,858 259,1286l4 9c-2013,-3 -4027,-4 -6041,-4l4 -9c172,-411 274,-856 254,-1312 -17,-398 -127,-806 -363,-1208l-7 -12 13 2c312,45 621,63 928,27 306,-35 611,-124 915,-289l3 -2 3 2c412,242 831,365 1255,366 424,0 855,-123 1293,-373l3 -2 3 2zm754 290c-291,-46 -530,-136 -758,-277 -438,250 -870,373 -1296,373 -426,0 -845,-123 -1258,-365 -305,165 -610,253 -916,289 -304,35 -609,19 -918,-25 233,400 341,805 358,1202 20,455 -81,898 -251,1308l6001 4c-188,-427 -272,-861 -256,-1282 16,-426 135,-839 351,-1215 -428,37 -768,35 -1057,-10zm-5263 3657l6462 0 1 6c5,51 9,102 11,152 45,814 -191,1449 -636,1899 -444,450 -1096,714 -1883,789 -63,6 -127,11 -191,14 -366,0 -732,3 -1098,3 -72,-5 -144,-12 -215,-20 -748,-86 -1397,-336 -1843,-774 -447,-438 -691,-1064 -631,-1900 4,-53 9,-107 15,-162l1 -6 6 0zm6451 13l-6445 0c-6,53 -11,104 -14,156 -60,832 183,1455 627,1890 444,436 1090,685 1836,771 71,8 142,15 215,20l1096 -3c64,-4 128,-8 190,-14 784,-74 1433,-338 1875,-785 442,-447 677,-1078 632,-1889 -3,-48 -6,-96 -11,-145z"/>
   <path class="fil1" d="M1037 854c239,406 350,818 367,1221 20,461 -82,909 -256,1324l-42 -17c172,-409 273,-852 253,-1305 -17,-396 -126,-801 -361,-1200l39 -23z"/>
   <polygon class="fil1" points="1127,3368 7148,3371 7148,3417 1127,3413 "/>
   <path class="fil1" d="M7127 3403c-192,-432 -278,-872 -261,-1299 16,-419 130,-824 338,-1196 -415,34 -746,32 -1030,-13 -290,-46 -529,-135 -756,-274 -438,248 -870,370 -1295,370 -426,0 -846,-123 -1259,-363 -304,163 -608,251 -914,286 -309,36 -620,19 -935,-27l6 -45c311,45 618,62 924,27 304,-35 607,-123 909,-287l11 -6 11 7c410,241 826,363 1247,363 422,0 850,-122 1285,-371l12 -7 12 7c225,140 462,230 750,275 289,46 630,47 1062,9l44 -4 -22 38c-217,376 -337,787 -353,1213 -16,419 68,853 257,1278l-42 19z"/>
   <polygon class="fil1" points="920,4511 7377,4511 7377,4557 920,4557 "/>
   <path class="fil1" d="M7399 4532c5,52 9,102 11,152 45,819 -193,1458 -640,1911 -447,452 -1102,719 -1893,794 -63,6 -127,11 -191,14l-3 -45c64,-4 128,-8 190,-14 780,-74 1425,-336 1864,-780 438,-444 672,-1071 627,-1877 -3,-50 -7,-100 -11,-150l45 -4z"/>
   <polygon class="fil1" points="4685,7403 3589,7406 3589,7361 4685,7358 "/>
   <path class="fil1" d="M3587 7406c-73,-5 -145,-12 -216,-20 -752,-86 -1404,-338 -1853,-779 -450,-441 -696,-1071 -636,-1913 4,-53 9,-108 15,-163l45 5c-6,54 -11,108 -15,161 -59,827 181,1445 622,1877 441,433 1084,681 1826,766 71,8 142,15 214,20l-3 45z"/>
   <polygon class="fil1" points="4165,956 4165,3395 4119,3395 4119,956 "/>
   <path class="fil9" d="M5033 5926c0,485 -393,878 -877,878 -485,0 -878,-393 -878,-877 0,0 0,0 0,-1 0,-485 393,-878 877,-878 485,0 878,393 878,877 0,0 0,0 0,1z"/>
   <path class="fil1" d="M5056 5926c0,249 -101,474 -264,637 -163,163 -388,264 -637,264 -249,0 -474,-101 -637,-264 -163,-163 -264,-388 -264,-637l0 -1c0,-249 101,-474 264,-637 163,-163 388,-264 637,-264 249,0 474,101 637,264 163,163 264,388 264,637l0 1zm-296 605c155,-155 250,-369 250,-605l0 -1c0,-236 -96,-450 -251,-604 -155,-155 -369,-250 -605,-250 -236,0 -450,96 -604,251 -155,155 -250,369 -250,605l0 1c0,236 96,450 251,604 155,155 369,250 605,250 236,0 450,-96 604,-251z"/>
   <path class="fil1" d="M3668 5217c-51,185 -92,368 -84,526 8,154 63,285 204,369 12,7 24,13 35,17 62,25 117,12 163,-19 48,-32 87,-83 116,-130 19,-32 33,-62 42,-84l37 15c-9,24 -25,56 -45,90 -31,52 -74,107 -128,143 -56,37 -123,53 -200,23 -13,-5 -27,-12 -41,-20 -154,-92 -215,-234 -224,-401 -8,-163 33,-351 85,-539l38 10z"/>
   <path class="fil1" d="M3342 6261c84,-4 148,-9 203,-33 55,-24 102,-68 155,-148l33 22c-58,88 -111,136 -172,163 -61,27 -129,33 -218,37l-2 -40z"/>
   <path class="fil1" d="M4145 5893c35,-21 69,-37 102,-46 52,-14 101,-12 146,7 45,19 85,55 118,108 22,36 41,80 57,134 83,-26 163,-9 230,30 66,39 118,101 143,165 2,6 5,12 7,19l-38 12c-2,-5 -4,-11 -6,-16 -23,-57 -69,-111 -127,-146 -58,-34 -127,-49 -199,-26 -5,2 -11,4 -16,6l-21 8 -6 -22c-16,-59 -36,-106 -59,-144 -29,-47 -62,-77 -99,-93 -37,-15 -77,-17 -121,-5 -29,8 -60,22 -92,41l-21 -34z"/>
   <path class="fil1" d="M4578 6130c-66,160 -186,276 -350,359 -162,82 -367,130 -606,154l-4 -40c234,-23 435,-70 592,-150 155,-78 269,-188 331,-338l37 15z"/>
   <path class="fil1" d="M4143 5937l-21 -19c-110,-98 -244,-218 -22,-492 -47,-63 -77,-126 -80,-189 -3,-68 25,-135 96,-199l27 30c-61,55 -86,111 -83,167 3,58 33,118 82,179l10 13 -10 12c-211,253 -90,362 8,449l22 19 -27 29z"/>
   <path class="fil1" d="M5011 5989c-88,-155 -242,-345 -429,-460 -138,-85 -294,-129 -453,-87l-10 -39c171,-45 337,1 484,92 193,119 352,314 443,474l-35 20z"/>
   <polygon class="fil1" points="2928,3541 2928,3545 2768,3545 2768,3854 2768,4030 2768,4374 2940,4374 2940,4030 3186,4030 3186,3854 2940,3854 2940,3720 3365,3720 3365,3541 "/>
   <path class="fil0" d="M4232 3801l155 -81c-99,-218 -499,-280 -631,0 -136,334 9,645 272,675 167,24 299,-57 356,-203l-153 -88c-41,101 -196,171 -314,2 -36,-76 -46,-192 -5,-306 97,-133 239,-119 321,0z"/>
   <path class="fil1" d="M4234 3793l144 -75c-30,-62 -84,-110 -150,-141 -48,-22 -101,-35 -155,-37 -54,-2 -108,8 -157,30 -63,29 -118,79 -154,154 -25,62 -41,123 -48,182 -12,108 5,208 45,288 40,80 102,142 181,174 27,11 57,19 88,22l0 0c81,12 154,-2 213,-36 59,-34 106,-88 134,-158l-142 -81c-13,28 -34,53 -60,71 -21,15 -46,25 -72,29 -26,4 -54,1 -83,-10 -37,-15 -74,-44 -109,-93l-1 -1c-19,-40 -31,-92 -32,-149 -1,-51 7,-107 27,-162l1 -2c20,-27 41,-48 64,-64 34,-24 71,-34 107,-34 36,1 71,13 103,36 20,15 39,34 55,56zm156 -67l-160 83 -3 -5c-16,-24 -35,-43 -56,-58 -29,-21 -62,-33 -95,-34 -33,-1 -67,9 -99,31 -21,15 -42,35 -60,60 -19,53 -27,107 -26,156 1,55 12,104 31,143 32,46 68,74 102,88 26,11 52,13 76,10 24,-3 47,-13 66,-27 26,-18 47,-44 58,-72l3 -7 164 94 -2 5c-29,75 -78,134 -142,170 -62,35 -137,49 -221,37 -32,-4 -63,-12 -91,-23 -82,-33 -147,-97 -188,-180 -41,-83 -59,-185 -46,-296 7,-60 23,-122 48,-186l0 0c37,-78 94,-130 160,-160 51,-23 107,-33 163,-31 56,2 111,15 160,39 70,33 128,86 159,153l3 6 -5 3z"/>
   <path class="fil0" d="M4823 3544l3 837 456 -2c148,-21 343,-263 115,-452 120,-106 105,-333 -136,-381l-438 -2zm175 165l0 0 227 0c100,29 70,125 3,141l-230 0 0 -141zm2 304l0 0 239 3c118,35 91,170 4,193l-240 -2 -2 -194z"/>
   <path class="fil1" d="M4830 3550l3 824 449 -2c52,-7 110,-43 152,-94 21,-25 38,-55 49,-86 11,-31 15,-65 10,-99 -8,-54 -38,-110 -100,-161l-6 -5 6 -5c35,-31 59,-73 67,-117 6,-29 5,-60 -2,-89 -7,-29 -22,-57 -43,-82 -33,-38 -84,-67 -154,-82l-431 -2zm-10 830l-3 -844c102,0 362,-12 446,2 74,15 127,46 162,86 23,26 38,56 46,88 8,31 8,64 2,95 -9,45 -32,87 -66,119 61,53 91,110 99,165 5,36 1,72 -11,105 -11,33 -29,64 -51,90 -45,54 -106,91 -161,99 -129,12 -326,2 -463,2l0 -7zm178 -679c32,0 214,-4 229,0 29,8 48,22 59,39 8,12 11,26 11,40 -1,13 -5,26 -13,38 -12,18 -30,32 -53,37 -25,6 -198,0 -238,0l0 -154 7 0zm226 13l-220 0 0 128 223 0c19,-5 35,-17 45,-32 6,-10 10,-21 11,-32 1,-11 -2,-22 -8,-32 -9,-14 -25,-26 -50,-33zm-224 291c34,0 224,-1 240,3 34,10 56,28 69,49 11,17 15,36 14,55 -1,19 -7,38 -17,54 -14,22 -36,40 -64,47 -22,5 -210,-1 -249,-2l-2 -207 7 0zm238 16l-231 -3 2 181 233 2c24,-6 43,-22 55,-41 9,-14 14,-31 15,-47 1,-16 -3,-33 -12,-48 -11,-18 -31,-34 -61,-43z"/>
  </g>
 </g>
</svg>
