<?xml version="1.0" encoding="UTF-8"?>
<!DOCTYPE svg PUBLIC "-//W3C//DTD SVG 1.1//EN" "http://www.w3.org/Graphics/SVG/1.1/DTD/svg11.dtd">
<!-- Creator: CorelDRAW X7 -->
<svg xmlns="http://www.w3.org/2000/svg" xml:space="preserve" width="1041px" height="1535px" version="1.1" style="shape-rendering:geometricPrecision; text-rendering:geometricPrecision; image-rendering:optimizeQuality; fill-rule:evenodd; clip-rule:evenodd"
viewBox="0 0 1041 1535"
 xmlns:xlink="http://www.w3.org/1999/xlink">
 <defs>
  <style type="text/css">
   <![CDATA[
    .fil0 {fill:#FEFEFE}
    .fil3 {fill:black}
    .fil2 {fill:#00AB4F}
    .fil4 {fill:#1B4591}
    .fil7 {fill:#C5BD00}
    .fil1 {fill:#FFF301}
    .fil6 {fill:black;fill-rule:nonzero}
    .fil5 {fill:#1B4591;fill-rule:nonzero}
   ]]>
  </style>
 </defs>
 <g id="Layer_x0020_1">
  <metadata id="CorelCorpID_0Corel-Layer"/>
  <path class="fil0" d="M996 1005c0,4 -1,8 -1,12 0,4 0,8 0,12 0,4 -1,8 -1,12 0,4 -1,8 -1,12 0,4 -1,8 -1,12 -1,4 -1,8 -2,12l0 0c-1,4 -1,8 -2,12l0 0c-1,4 -1,8 -2,11l0 0c-1,4 -2,8 -3,12l0 0c-1,4 -1,8 -2,11l0 0c-1,4 -2,8 -3,12l0 0c-2,3 -3,7 -4,11l0 0c-1,4 -2,7 -3,11 -2,4 -3,7 -4,11l0 0c-2,4 -3,7 -4,11l0 0c-2,3 -3,7 -5,11l0 0c-1,3 -3,7 -4,10l0 0c-2,4 -4,7 -5,11l0 0c-2,3 -4,6 -5,10l0 0c-2,3 -4,7 -6,10l0 0c-2,3 -4,7 -5,10 -2,3 -4,7 -6,10 -2,3 -4,6 -6,10l0 0c-2,3 -4,6 -7,9l0 0c-2,3 -4,7 -6,10 -2,3 -5,6 -7,9 -2,3 -4,6 -7,9 -2,3 -5,6 -7,9l0 0c-2,3 -5,6 -7,9l0 0c-5,5 -10,11 -16,16l0 0c-2,3 -5,6 -8,9 -2,2 -5,5 -8,8l0 0c-3,2 -5,5 -8,7l0 0c-3,3 -6,5 -9,8l0 0c-3,2 -5,5 -8,7l0 0c-3,3 -6,5 -9,7 -3,3 -6,5 -9,7 -3,3 -6,5 -10,7 -3,2 -6,4 -9,7l0 0c-3,2 -6,4 -9,6l0 0c-4,2 -7,4 -10,6l0 0c-3,2 -7,4 -10,6 -3,2 -7,4 -10,5l0 0c-3,2 -7,4 -10,6l0 0c-4,1 -7,3 -11,5l0 0c-3,1 -7,3 -10,5l0 0c-4,1 -7,3 -11,4l0 0c-3,2 -7,3 -10,5 -4,1 -8,3 -11,4l0 0c-4,1 -7,2 -11,4l0 0c-4,1 -8,2 -11,3 -4,1 -8,3 -11,4 -4,1 -8,2 -12,3l0 0c-4,1 -7,2 -11,3l0 0c-4,0 -8,1 -12,2 -4,1 -8,2 -11,2l0 0c-4,1 -8,2 -12,2l0 0c-4,1 -8,1 -12,2l0 0c-4,0 -8,1 -12,1l0 0c-4,1 -8,1 -12,1l0 0c-4,1 -8,1 -12,1l0 0c-4,0 -8,0 -12,1l0 0c-4,0 -8,0 -12,0 -5,0 -9,0 -13,0l0 0c-4,-1 -8,-1 -12,-1l0 0c-4,0 -8,0 -12,-1l0 0c-4,0 -8,0 -12,-1l0 0c-4,0 -8,-1 -12,-1l0 0c-4,-1 -8,-1 -12,-2l0 0c-4,0 -8,-1 -12,-2l0 0c-3,0 -7,-1 -11,-2 -4,-1 -8,-2 -12,-2l0 0c-4,-1 -7,-2 -11,-3l0 0c-4,-1 -8,-2 -12,-3 -3,-1 -7,-3 -11,-4 -3,-1 -7,-2 -11,-3l0 0c-4,-2 -7,-3 -11,-4l0 0c-3,-1 -7,-3 -11,-4 -3,-2 -7,-3 -10,-5l0 0c-4,-1 -7,-3 -11,-4l0 0c-3,-2 -7,-4 -10,-5l0 0c-4,-2 -7,-4 -11,-5l0 0c-3,-2 -7,-4 -10,-6l0 0c-3,-1 -7,-3 -10,-5 -3,-2 -7,-4 -10,-6l0 0c-3,-2 -6,-4 -10,-6l0 0c-3,-2 -6,-4 -9,-6l0 0c-3,-3 -6,-5 -9,-7 -4,-2 -7,-4 -10,-7 -3,-2 -6,-4 -9,-7 -3,-2 -6,-4 -9,-7l0 0c-3,-2 -5,-5 -8,-7l0 0c-3,-3 -6,-5 -9,-8l0 0c-3,-2 -5,-5 -8,-7l0 0c-3,-3 -6,-6 -8,-8 -3,-3 -6,-6 -8,-9l0 0c-6,-5 -11,-11 -16,-16l0 0c-2,-3 -5,-6 -7,-9l0 0c-2,-3 -5,-6 -7,-9 -3,-3 -5,-6 -7,-9 -2,-3 -5,-6 -7,-9 -2,-3 -4,-7 -6,-10l0 0c-3,-3 -5,-6 -7,-9l0 0c-2,-4 -4,-7 -6,-10 -2,-3 -4,-7 -6,-10 -1,-3 -3,-7 -5,-10l0 0c-2,-3 -4,-7 -6,-10l0 0c-1,-4 -3,-7 -5,-10l0 0c-1,-4 -3,-7 -5,-11l0 0c-1,-3 -3,-7 -4,-10l0 0c-2,-4 -3,-8 -5,-11l0 0c-1,-4 -2,-7 -4,-11l0 0c-1,-4 -2,-7 -4,-11 -1,-4 -2,-7 -3,-11l0 0c-1,-4 -2,-8 -4,-11l0 0c-1,-4 -2,-8 -3,-12l0 0c-1,-3 -1,-7 -2,-11l0 0c-1,-4 -2,-8 -3,-12l0 0c-1,-3 -1,-7 -2,-11l0 0c-1,-4 -1,-8 -2,-12l0 0c-1,-4 -1,-8 -2,-12 0,-4 -1,-8 -1,-12 0,-4 -1,-8 -1,-12 0,-4 -1,-8 -1,-12 0,-4 0,-8 0,-12 0,-4 -1,-8 -1,-12l1 -596c117,-39 286,-63 475,-63 188,0 357,24 474,63l1 596z"/>
  <path class="fil1" d="M68 424l0 0c115,-35 275,-56 453,-56 177,0 337,21 452,56l0 0 0 517 -89 0 0 -63c-41,0 -82,0 -123,0l0 63 -78 0 0 -63c-41,0 -82,0 -123,0l0 63 -79 0 0 -63c-41,0 -82,0 -123,0l0 63 -78 0 0 -63c-41,0 -82,0 -123,0l0 63 -89 0 0 -517z"/>
  <path class="fil2" d="M68 941l89 0 0 -63c41,0 82,0 123,0l0 63 78 0 0 -63c41,0 82,0 123,0l0 63 79 0 0 -63c41,0 82,0 123,0l0 63 78 0 0 -63c41,0 82,0 123,0l0 63 89 0 -100 -177 -705 0 -100 177z"/>
  <path class="fil3" d="M1020 1005c0,276 -223,499 -499,499 -277,0 -500,-223 -500,-499l0 -594c2,-11 8,-20 19,-22 117,-40 289,-65 480,-65 192,0 364,25 481,65 11,2 17,12 19,22l0 594zm-25 -596c-117,-39 -286,-63 -474,-63 -189,0 -358,24 -475,63l-1 596c0,262 213,475 476,475 262,0 475,-213 475,-475l-1 -596z"/>
  <polygon class="fil3" points="68,1016 973,1016 973,952 873,952 873,889 772,889 772,952 671,952 671,889 571,889 571,952 470,952 470,889 370,889 370,952 269,952 269,889 168,889 168,952 68,952 "/>
  <path class="fil4" d="M794 1365c-15,12 -31,23 -48,32l-92 -30 -133 44 -134 -44 -92 30c-17,-9 -33,-20 -48,-32l6 2 134 -44 134 44 133 -44 134 44 6 -2z"/>
  <path class="fil4" d="M907 1241c-12,20 -26,39 -42,57l-77 25 -134 -43 -133 43 -134 -43 -134 43 -77 -25c-16,-18 -30,-37 -42,-57l119 39 134 -44 134 44 133 -44 134 44 119 -39z"/>
  <path class="fil4" d="M947 1156c-4,13 -10,26 -15,39l-10 -3 -134 44 -134 -44 -133 44 -134 -44 -134 44 -134 -44 -10 3c-5,-13 -11,-26 -15,-39l25 -8 134 44 134 -44 134 44 133 -44 134 44 134 -44 25 8z"/>
  <path class="fil4" d="M968 1075c-2,14 -5,28 -9,41l-37 -12 -134 44 -134 -44 -133 44 -134 -44 -134 44 -134 -44 -37 12c-4,-13 -7,-27 -9,-41l46 -15 134 44 134 -44 134 44 133 -44 134 44 134 -44 46 15z"/>
  <path class="fil5" d="M784 606l0 -159 53 0c19,0 34,3 44,10 11,7 16,17 16,30 0,8 -3,15 -7,21 -5,5 -12,10 -21,13 10,2 18,7 24,13 6,7 9,16 9,26 0,15 -6,26 -18,34 -12,8 -30,12 -54,12l-46 0zm-645 0l0 -159 40 0c13,0 22,1 30,3 7,1 13,4 19,9 6,4 10,9 13,16 4,6 5,13 5,20 0,17 -5,29 -17,39 -11,9 -26,14 -45,14 -2,0 -4,0 -5,0 -1,0 -2,0 -3,0l0 58 -37 0zm42 -130l-5 0 0 42 7 0c10,0 17,-1 22,-5 5,-4 7,-9 7,-16 0,-7 -2,-13 -7,-16 -5,-3 -13,-5 -24,-5zm100 130l0 -159 105 0 -14 33 -52 0 0 28 56 0 0 33 -56 0 0 31 67 0 0 34 -106 0zm145 -159l35 0c14,0 25,1 33,2 8,2 15,5 21,9 6,4 11,9 14,16 4,6 6,13 6,19 0,10 -3,19 -9,27 -5,7 -13,13 -23,17l52 69 -47 0 -45 -63 -6 0 0 63 -31 0 0 -159zm38 29l-7 0 0 44 9 0c10,0 18,-2 23,-6 6,-4 8,-9 8,-17 0,-7 -2,-13 -8,-16 -5,-4 -13,-5 -25,-5zm106 85c10,6 19,10 26,13 8,2 15,3 22,3 7,0 12,-1 17,-4 4,-3 6,-7 6,-11 0,-7 -8,-14 -23,-22 -2,-2 -4,-3 -5,-3l-12 -6c-11,-6 -19,-13 -25,-20 -5,-8 -8,-16 -8,-26 0,-13 5,-23 16,-31 10,-8 23,-12 40,-12 6,0 12,0 19,2 7,1 15,3 24,6l-10 31c-5,-2 -9,-4 -14,-5 -7,-3 -13,-4 -18,-4 -6,0 -11,1 -14,3 -3,3 -5,6 -5,10 0,2 1,5 3,7 2,3 5,5 9,7l20 10c17,9 28,17 34,24 5,8 8,16 8,26 0,16 -5,28 -17,38 -11,9 -26,14 -45,14 -6,0 -13,-1 -20,-2 -8,-1 -16,-3 -25,-6l-3 -42zm134 45l0 -142 40 -17 0 159 -40 0zm117 -29l17 0c8,0 14,-2 19,-6 5,-3 7,-8 7,-15 0,-6 -2,-11 -7,-15 -4,-3 -11,-5 -19,-5l-17 0 0 41zm0 -67l13 0c8,0 15,-2 19,-5 5,-3 7,-8 7,-14 0,-6 -2,-10 -7,-13 -4,-3 -10,-4 -20,-4l-12 0 0 36z"/>
  <path class="fil6" d="M437 724l-19 0c-6,0 -9,-2 -9,-6 0,-4 4,-6 10,-6 1,0 2,0 3,0l0 -43c-3,2 -5,3 -6,3 -2,0 -3,-1 -5,-2 -1,-1 -2,-3 -2,-4 0,-2 1,-4 4,-6l5 -4 6 -5c2,-1 5,-2 7,-2 3,0 4,2 4,5 0,4 0,9 0,16 -1,7 -1,17 -1,30l0 11 3 0c2,0 4,1 5,2 1,1 2,3 2,5 0,1 -1,3 -2,4 -1,1 -3,2 -5,2zm59 -26c-2,0 -4,1 -6,1 -1,1 -3,1 -4,1 -6,0 -12,-2 -17,-6 -6,-4 -8,-10 -8,-18 0,-9 3,-16 9,-20 5,-4 11,-6 19,-6 7,0 12,2 17,7 6,6 8,12 8,19 0,8 -1,16 -4,23 -4,9 -8,15 -14,19 -3,2 -7,4 -12,6 -6,3 -10,4 -13,4 -1,0 -3,-1 -4,-2 -1,-1 -2,-3 -2,-4 0,-3 2,-5 5,-6 2,-1 5,-2 8,-3 4,-1 8,-3 11,-6 2,-2 5,-5 7,-9zm-8 -37c-5,0 -8,2 -11,4 -2,2 -3,6 -3,11 0,3 1,6 4,9 2,1 6,2 10,2 1,0 3,0 5,-1 2,-1 5,-3 8,-5 0,-2 0,-4 0,-5 0,-3 -1,-6 -4,-10 -3,-3 -6,-5 -9,-5zm74 24c6,3 10,9 10,17 0,7 -3,12 -8,17 -4,5 -10,7 -17,7 -5,0 -10,-1 -14,-3 -5,-3 -8,-6 -10,-11 0,0 0,-1 0,-2 0,-2 1,-3 2,-4 1,-1 3,-2 5,-2 2,0 3,1 4,2 3,3 4,5 4,5 2,2 5,2 9,2 3,0 6,0 8,-2 2,-2 3,-4 3,-7 0,-8 -5,-12 -16,-13 -5,-1 -7,-3 -7,-6 0,-3 2,-5 6,-6 3,-1 6,-2 10,-2 2,-1 4,-2 5,-3 1,-1 1,-2 2,-4 0,-5 -4,-7 -12,-7 -2,0 -5,1 -8,3 -3,2 -5,3 -6,3 -2,0 -3,-1 -5,-2 -1,-2 -2,-3 -2,-5 0,-3 3,-5 8,-8 5,-2 9,-4 12,-4 7,0 13,2 18,5 5,4 7,9 7,15 0,3 -1,6 -2,9 -1,2 -3,4 -6,6zm60 0c6,3 10,9 10,17 0,7 -3,12 -8,17 -4,5 -10,7 -17,7 -5,0 -10,-1 -14,-3 -5,-3 -8,-6 -10,-11 0,0 0,-1 0,-2 0,-2 1,-3 2,-4 1,-1 3,-2 5,-2 2,0 3,1 4,2 2,3 4,5 4,5 2,2 5,2 9,2 3,0 6,0 8,-2 2,-2 3,-4 3,-7 0,-8 -5,-12 -16,-13 -5,-1 -7,-3 -7,-6 0,-3 2,-5 6,-6 3,-1 6,-2 10,-2 2,-1 4,-2 5,-3 1,-1 1,-2 1,-4 1,-5 -3,-7 -11,-7 -2,0 -5,1 -8,3 -3,2 -5,3 -6,3 -2,0 -3,-1 -5,-2 -1,-2 -2,-3 -2,-5 0,-3 3,-5 8,-8 5,-2 9,-4 12,-4 7,0 13,2 18,5 5,4 7,9 7,15 0,3 -1,6 -2,9 -1,2 -4,4 -6,6z"/>
  <polygon class="fil1" points="354,30 385,128 483,128 403,188 434,285 354,225 274,285 305,188 225,128 324,128 "/>
  <polygon class="fil7" points="324,128 354,171 354,30 "/>
  <polygon class="fil7" points="483,128 354,171 385,128 "/>
  <polygon class="fil7" points="434,285 354,171 403,188 "/>
  <polygon class="fil7" points="274,285 354,171 354,225 "/>
  <polygon class="fil7" points="225,128 354,171 305,188 "/>
  <polygon class="fil1" points="687,30 717,128 816,128 736,188 767,285 687,225 607,285 638,188 558,128 656,128 "/>
  <polygon class="fil7" points="656,128 687,171 687,30 "/>
  <polygon class="fil7" points="816,128 687,171 717,128 "/>
  <polygon class="fil7" points="767,285 687,171 736,188 "/>
  <polygon class="fil7" points="607,285 687,171 687,225 "/>
  <polygon class="fil7" points="558,128 687,171 638,188 "/>
 </g>
</svg>
